<?xml version="1.0" encoding="UTF-8"?>
<svg xmlns="http://www.w3.org/2000/svg" xmlns:xlink="http://www.w3.org/1999/xlink" width="480" height="565"  version="1.1">

<defs>
<symbol overflow="visible" id="dotted linelet" >
  <line x1="0" y1="0" x2="10" y2 = "0" stroke="black" stroke-width="2" stroke-linecap="round" />
  <line x1="20" y1="0" x2="50" y2 = "0" stroke="black" stroke-width="2" stroke-linecap="round" />
</symbol>

<symbol overflow="visible" id="dotted line" >
  <use xlink:href="#dotted linelet" x="0" y="0" />
  <use xlink:href="#dotted linelet" x="60" y="0" />
  <use xlink:href="#dotted linelet" x="120" y="0" />
  <use xlink:href="#dotted linelet" x="180" y="0" />
  <use xlink:href="#dotted linelet" x="240" y="0" />
  <use xlink:href="#dotted linelet" x="300" y="0" />
  <use xlink:href="#dotted linelet" x="360" y="0" />
  <use xlink:href="#dotted linelet" x="420" y="0" />
</symbol>

<symbol overflow="visible" id="bottom line" >
  <text x="0" y="38" font-family="serif" font-size="37" fill="black" stroke="none" font-weight="normal">δ</text>
  <text x="18" y="45" font-family="serif" font-size="21" fill="black" stroke="none" font-weight="normal">XY</text>
  <text x="55" y="38" font-family="serif" font-size="37" fill="black" stroke="none" font-weight="normal">=</text>
  <line x1="90" y1="0" x2="90" y2 = "50" stroke="black" stroke-width="2" stroke-linecap="round" />
  <line x1="95" y1="7" x2="95" y2 = "43" stroke="black" stroke-width="2" stroke-linecap="round" />
  <text x="102" y="38" font-family="serif" font-size="37" fill="black" stroke="none" font-weight="normal">α</text>
  <text x="122" y="45" font-family="serif" font-size="21" fill="black" stroke="none" font-weight="normal">XY</text>
  <line x1="160" y1="7" x2="160" y2 = "43" stroke="black" stroke-width="2" stroke-linecap="round" />
  <line x1="170" y1="30" x2="180" y2 = "30" stroke="black" stroke-width="2" stroke-linecap="round" />
  <line x1="190" y1="7" x2="190" y2 = "43" stroke="black" stroke-width="2" stroke-linecap="round" />
angle X-RE-Y
  <text x="197" y="38" font-family="serif" font-size="37" fill="black" stroke="none" font-weight="normal">β</text>
  <text x="217" y="45" font-family="serif" font-size="21" fill="black" stroke="none" font-weight="normal">XY</text>
  <line x1="255" y1="7" x2="255" y2 = "43" stroke="black" stroke-width="2" stroke-linecap="round" />
  <line x1="260" y1="0" x2="260" y2 = "50" stroke="black" stroke-width="2" stroke-linecap="round" />


</symbol>

</defs>

distance lines
  <use xlink:href="#dotted line" x="0" y="30" />
  <use xlink:href="#dotted line" x="0" y="130" />
  <use xlink:href="#dotted line" x="0" y="430" />
  <use xlink:href="#bottom line" x="70" y="510" />

view points
  <text x="130" y="22" font-family="serif" font-size="28" fill="black" stroke="none" font-weight="normal">X</text>
  <text x="280" y="122" font-family="serif" font-size="28" fill="black" stroke="none" font-weight="normal">Y</text>

angle LE-X-RE
  <text x="180" y="92" font-family="serif" font-size="37" fill="MediumBlue" stroke="none" font-weight="normal">ψ</text>
  <text x="200" y="97" font-family="serif" font-size="21" fill="MediumBlue" stroke="none" font-weight="normal">X</text>
<path d="M 125,95 a 50,50 0 0,0 50,0" stroke="MediumBlue" stroke-width="2" fill="none" />

angle LE-Y-RE
  <text x="310" y="192" font-family="serif" font-size="37" fill="MediumBlue" stroke="none" font-weight="normal">ψ</text>
  <text x="330" y="197" font-family="serif" font-size="21" fill="MediumBlue" stroke="none" font-weight="normal">Y</text>
<path d="M 253,175 a 50,40 10 0,0 48,15" stroke="MediumBlue" stroke-width="2" fill="none" />

angle X-LE-Y
  <text x="110" y="370" font-family="serif" font-size="37" fill="MediumBlue" stroke="none" font-weight="normal">α</text>
  <text x="130" y="375" font-family="serif" font-size="21" fill="MediumBlue" stroke="none" font-weight="normal">XY</text>
<path d="M 66,355 a 50,40 10 0,1 34,13" stroke="MediumBlue" stroke-width="2" fill="none" />

angle X-RE-Y
  <text x="335" y="350" font-family="serif" font-size="37" fill="MediumBlue" stroke="none" font-weight="normal">β</text>
  <text x="355" y="355" font-family="serif" font-size="21" fill="MediumBlue" stroke="none" font-weight="normal">XY</text>
<path d="M 308,350 a 50,40 10 0,1 25,-9" stroke="MediumBlue" stroke-width="2" fill="none" />

x-sight lines
  <line x1="140" y1="30" x2="50" y2 = "430" stroke="black" stroke-width="2" stroke-linecap="round" />
  <line x1="140" y1="30" x2="350" y2 = "430" stroke="black" stroke-width="2" stroke-linecap="round" />

y-sight lines
  <line x1="290" y1="130" x2="50" y2 = "430" stroke="black" stroke-width="2" stroke-linecap="round" />
  <line x1="290" y1="130" x2="350" y2 = "430" stroke="black" stroke-width="2" stroke-linecap="round" />

arrow Dx
  <line x1="15" y1="40" x2="15" y2 = "420" stroke="black" stroke-width="2" stroke-linecap="round" />
  <polygon points="8,55 22,55 15,32" stroke="none" fill="black" />
  <polygon points="8,405 22,405 15,428" stroke="none" fill="black" />
  <text x="20" y="242" font-family="serif" font-size="28" fill="black" stroke="none" font-weight="normal">D</text>
  <text x="40" y="248" font-family="serif" font-size="21" fill="black" stroke="none" font-weight="normal">X</text>

arrow Dy
  <line x1="395" y1="140" x2="395" y2 = "420" stroke="black" stroke-width="2" stroke-linecap="round" />
  <polygon points="388,155 402,155 395,132" stroke="none" fill="black" />
  <polygon points="388,405 402,405 395,428" stroke="none" fill="black" />
  <text x="400" y="242" font-family="serif" font-size="28" fill="black" stroke="none" font-weight="normal">D</text>
  <text x="420" y="248" font-family="serif" font-size="21" fill="black" stroke="none" font-weight="normal">Y</text>

arrow dxy
  <line x1="395" y1="40" x2="395" y2 = "120" stroke="black" stroke-width="2" stroke-linecap="round" />
  <polygon points="388,55 402,55 395,32" stroke="none" fill="black" />
  <polygon points="388,105 402,105 395,128" stroke="none" fill="black" />
  <text x="400" y="82" font-family="serif" font-size="28" fill="black" stroke="none" font-weight="normal">d</text>
  <text x="420" y="88" font-family="serif" font-size="21" fill="black" stroke="none" font-weight="normal">XY</text>

eye points
  <text x="40" y="460" font-family="serif" font-size="28" fill="black" stroke="none" font-weight="normal">LE</text>
  <text x="340" y="460" font-family="serif" font-size="28" fill="black" stroke="none" font-weight="normal">RE</text>

N's
  <text x="20" y="400" font-family="serif" font-size="28" fill="black" stroke="none" font-weight="normal">N</text>
  <text x="40" y="406" font-family="serif" font-size="21" fill="black" stroke="none" font-weight="normal">L</text>
  <text x="350" y="400" font-family="serif" font-size="28" fill="black" stroke="none" font-weight="normal">N</text>
  <text x="370" y="406" font-family="serif" font-size="21" fill="black" stroke="none" font-weight="normal">R</text>

other letters
  <text x="188" y="460" font-family="serif" font-size="28" fill="black" stroke="none" font-weight="normal">i</text>
  <text x="180" y="490" font-family="serif" font-size="28" fill="black" stroke="none" font-weight="normal">(a)</text>

</svg>